<?xml version="1.0" encoding="UTF-8"?>
<svg id="Layer_1" xmlns="http://www.w3.org/2000/svg" version="1.1" viewBox="0 0 48 48">
  <!-- Generator: Adobe Illustrator 29.3.1, SVG Export Plug-In . SVG Version: 2.1.0 Build 151)  -->
  <defs>
    <style>
      .st0 {
        display: none;
        fill: #e3232c;
        fill-opacity: .1;
      }

      .st1 {
        fill: #e3232b;
        stroke: #e3232c;
        stroke-linecap: round;
        stroke-linejoin: round;
        stroke-width: 2px;
      }
    </style>
  </defs>
  <rect class="st0" width="48" height="48" rx="12" ry="12"/>
  <path class="st1" d="M23.5,14.3c.1-.3.4-.4.7-.2.1,0,.2.1.2.2l2.3,4.7c.3.6.9,1.1,1.6,1.2l5.2.8c.3,0,.5.3.4.6,0,.1,0,.2-.2.3l-3.7,3.6c-.5.5-.7,1.2-.6,1.9l.9,5.1c0,.3-.1.6-.4.6h-.3l-4.6-2.4c-.6-.3-1.4-.3-2,0l-4.6,2.4c-.3,0-.6,0-.7-.2v-.3l.9-5.1c.1-.7-.1-1.4-.6-1.9l-3.7-3.6c-.2-.2-.2-.5,0-.7,0,0,.2-.1.3-.2l5.2-.8c.7-.1,1.3-.5,1.6-1.2l2.3-4.7h-.2Z"/>
</svg>